<svg width="166" height="32" viewBox="0 0 166 32" fill="none" xmlns="http://www.w3.org/2000/svg">
<path fill-rule="evenodd" clip-rule="evenodd" d="M30.915 5.50665C31.0095 5.84219 31.2038 6.05007 31.3913 6.2665L33.0413 8.25585C34.3527 9.83642 37.6537 13.4249 38.0371 15.4704C38.3184 16.9679 35.9508 18.8694 35.0096 19.674C34.777 19.8731 34.5564 20.0392 34.3209 20.242C33.055 21.3308 30.7973 23.2591 29.4253 23.8788C28.8047 24.1591 28.2237 24.3586 27.5245 24.0433C26.6956 23.6692 26.0643 23.0466 25.4382 22.4477L24.2576 21.202C24.0782 20.9746 23.8835 20.7727 23.7022 20.5447L21.477 17.8756C21.1029 17.4419 20.7379 16.9867 20.357 16.5267C20.0521 16.1579 19.5878 15.4902 19.171 15.2867C18.3777 14.8997 17.8204 15.3497 17.4061 15.7098C16.9798 16.0803 16.5409 16.4245 16.0818 16.8109C15.8534 17.0036 15.6201 17.1843 15.3924 17.378C15.1608 17.5752 14.9629 17.7585 14.7341 17.9318C14.5369 18.0817 14.2345 18.3205 14.0694 18.4803C13.6022 18.933 13.5312 19.683 13.9341 20.266C14.253 20.7276 16.1421 22.8909 16.705 23.6027L18.9137 26.2448C20.6909 28.3928 23.4206 30.4483 26.318 31.0544C29.4185 31.7026 31.8987 30.8678 34.1321 29.5841C35.8255 28.6108 36.9523 27.6262 38.381 26.4696C38.8443 26.0946 39.2463 25.7247 39.6956 25.3591L40.3568 24.7644C40.5491 24.5601 40.7759 24.3845 40.9865 24.1808C42.0953 23.1073 43.4527 21.5141 44.1321 20.0496C45.3198 17.4886 45.445 14.6525 44.4331 11.8943C43.3372 8.90765 41.4685 6.93482 39.5305 4.57888L37.3026 1.91273C36.9746 1.5267 36.6489 0.931055 35.9433 0.84277C35.5692 0.795763 35.2069 0.917433 34.9713 1.09292L32.3224 3.29539C31.5918 3.9167 30.6111 4.43154 30.915 5.50665Z" fill="#1365FE"/>
<path fill-rule="evenodd" clip-rule="evenodd" d="M16.5309 0.90287C15.0732 1.02454 13.8317 1.35384 12.6858 1.93197C9.93635 3.31853 7.91709 5.0814 5.63154 7.0494C5.18545 7.43352 3.78946 8.8136 3.48515 9.19024C2.98846 9.80441 2.66145 10.1506 2.17221 10.9093C1.51429 11.9303 1.04971 12.9928 0.739884 14.3771C-0.168825 18.4353 1.78647 22.3726 4.15379 25.1986C4.5152 25.6294 4.88601 26.0628 5.25585 26.5219L8.5958 30.5464C8.99129 31.0129 9.42732 31.4758 10.2451 31.2487C10.651 31.1362 11.3316 30.4922 11.6713 30.2051C12.1151 29.83 12.5469 29.4862 12.9962 29.1043C13.4368 28.7299 13.8865 28.3896 14.3164 27.999C14.7403 27.6136 14.9623 26.919 14.5599 26.2695C14.4134 26.033 14.1901 25.7984 14.0189 25.597C12.9576 24.3489 9.69882 20.4571 9.05549 19.5153C8.63442 18.8989 7.41456 17.1639 7.58878 16.1209C7.84216 14.6043 10.9368 12.1922 12.2964 11.0751C13.4212 10.1512 15.1683 8.60207 16.6321 8.09237C17.463 7.80335 17.8597 7.92859 18.515 8.31819C19.1516 8.69683 19.9814 9.44754 20.491 9.98057C20.677 10.1752 20.9271 10.4149 21.0997 10.6281C21.281 10.8523 21.4728 11.0336 21.6677 11.272L24.4406 14.6068C24.8208 15.0577 25.169 15.4918 25.5602 15.9561C25.8957 16.3542 26.2217 16.9362 26.9549 16.9864C27.6459 17.0338 28.0352 16.5939 28.5514 16.1592C29.0799 15.7138 31.5705 13.7883 31.8102 13.3107C32.3238 12.2885 31.4611 11.6221 30.883 10.8912C30.5213 10.4341 30.1349 10.024 29.7835 9.56497C29.6113 9.33949 29.4225 9.12338 29.232 8.90446C29.0364 8.67964 28.8544 8.44119 28.6607 8.21894C28.2795 7.78159 27.934 7.3258 27.559 6.89459C26.9293 6.17054 25.9774 4.99776 25.2429 4.36025C24.8056 3.98095 24.3965 3.61311 23.8946 3.23938C22.1087 1.90955 19.5214 0.653048 16.5309 0.90287Z" fill="#1365FE"/>
<path fill-rule="evenodd" clip-rule="evenodd" d="M75.0317 6.27001C75.2896 6.27001 75.3042 6.2372 75.3042 5.98647V1.10225C75.3042 0.874847 75.2571 0.833321 75.0317 0.833321L67.2388 0.832325C65.1043 0.832325 63.0479 1.08896 61.1957 1.73585C60.3616 2.0272 59.4971 2.42817 58.8316 2.86262C57.3493 3.83035 56.3521 4.88212 55.4583 6.4332C54.0548 8.86996 53.8112 12.277 53.8116 15.127C53.8116 18.5332 53.7496 22.8938 55.4898 25.7613C56.4196 27.2933 57.3879 28.3707 58.8855 29.3096C61.3154 30.8334 64.327 31.308 67.2839 31.308H75.0317C75.2796 31.308 75.3078 31.2827 75.3078 31.0342V26.15C75.3078 25.8986 75.2851 25.8713 75.0317 25.8713L68.0002 25.8729C65.3172 25.8729 63.5536 25.7334 62.0421 24.2693C60.8232 23.0888 60.6491 20.2124 60.6487 18.0845L60.6484 14.1862C60.6484 8.13121 61.7463 6.2671 67.9106 6.26743L75.0317 6.27001ZM76.112 13.4242H80.311C80.6472 13.4242 80.9216 13.6986 80.9216 14.0344V18.4031C80.9216 18.7389 80.6472 19.0136 80.311 19.0136H76.112C75.7762 19.0136 75.5018 18.7389 75.5018 18.4031V14.0344C75.5018 13.6986 75.7762 13.4242 76.112 13.4242ZM110.729 0.803505C110.737 2.41846 110.737 4.43347 110.729 6.0711V21.5591C110.729 23.4469 110.7 24.5139 111.274 26.2071C111.733 27.5629 112.543 28.5965 113.341 29.2859C115.345 31.0176 118.11 31.5455 121.472 31.4261L121.46 26.8965C119.028 26.8267 116.773 26.8978 116.411 23.9095C116.298 22.9785 116.368 17.3286 116.368 15.9148C116.368 15.374 116.41 4.14761 116.376 0.803505H110.729ZM148.694 30.9417C150.702 31.3323 153.17 31.5091 155.273 31.5805C159.054 31.7087 163.914 31.2551 165.196 27.1505C165.494 26.1974 165.613 24.9733 165.456 23.9173C165.294 22.8168 164.865 22.1395 164.305 21.5101C162.217 19.1619 155.547 18.9222 154.251 17.2092C153.528 16.2554 154.093 15.2679 154.832 14.8393C155.601 14.3926 156.776 14.2645 157.801 14.2388C160.637 14.1684 161.903 14.5742 164.41 14.8533C164.368 14.2713 164.029 10.5462 163.894 10.3074C163.029 10.0988 161.607 10.0002 160.677 9.92821C157.774 9.70339 153.607 9.72806 151.133 10.9596C149.58 11.7333 148.445 12.9943 148.036 15.081C146.348 23.7009 159.035 21.5727 159.549 24.9139C159.72 26.0261 158.776 26.6288 157.929 26.8796C156.208 27.3903 153.131 27.0723 151.326 26.8215C150.274 26.6756 149.223 26.4342 148.201 26.3142L148.694 30.9417ZM138.801 29.7216C138.93 29.9376 138.969 30.2562 139.047 30.5216C139.136 30.8197 139.24 31.0332 139.351 31.2999L144.127 31.3103L144.129 10.1466L138.457 10.1436L138.404 25.7711C138.248 25.8415 138.077 25.9622 137.922 26.0533C136.033 27.1752 132.625 27.6904 131.255 25.7675C130.697 24.985 130.67 24.1979 130.67 23.0942V13.3862C130.67 12.4194 130.748 11.0718 130.66 10.1514L124.958 10.143C124.908 10.6507 124.947 18.6892 124.947 19.4367C124.947 21.8602 124.759 26.1146 125.479 28.2055C125.831 29.2275 126.693 30.1725 127.586 30.7471C129.617 32.0542 133.178 31.7002 135.429 31.054C136.033 30.8807 136.574 30.6637 137.141 30.4175C137.642 30.1988 138.258 29.8549 138.801 29.7216ZM83.4074 1.01172L83.4024 31.308L89.9677 31.3096L89.9685 21.9633C92.7275 22.1317 93.8446 22.5219 97.0313 22.4373C100.441 22.3471 103.087 21.4971 104.718 18.7285C105.879 16.7583 105.871 14.6683 105.875 12.3023C105.876 11.063 105.892 9.83669 105.761 8.61624C104.804 -0.294363 97.9382 0.756746 90.8481 0.865795C88.3872 0.903418 85.8574 0.907904 83.4074 1.01172ZM89.9677 17.4753C90.3115 17.5917 91.4327 17.6611 91.8671 17.7049C93.4908 17.8691 96.2058 18.1218 97.6426 17.6566C98.6151 17.3419 99.4041 16.4261 99.7222 15.5349C100.126 14.403 100.025 12.9511 100.025 11.6703C100.025 8.80734 100.203 6.50422 97.6907 5.6374C96.1028 5.08975 93.6436 5.2228 91.8862 5.34281C91.3846 5.3772 90.422 5.4061 89.9677 5.51373V17.4753Z" fill="#4D4D4D"/>
</svg>
