<svg width="165" height="32" viewBox="0 0 165 32" fill="none" xmlns="http://www.w3.org/2000/svg">
<path fill-rule="evenodd" clip-rule="evenodd" d="M30.4 5.4188C30.4945 5.75389 30.6888 5.96217 30.8763 6.1785L32.5262 8.16737C33.8374 9.7479 37.1381 13.3361 37.5216 15.3817C37.8028 16.8791 35.4354 18.7801 34.4943 19.5846C34.2617 19.7837 34.0411 19.9498 33.8056 20.1526C32.5398 21.2416 30.2823 23.1699 28.9105 23.7894C28.2899 24.0694 27.7089 24.2689 27.0098 23.9536C26.1809 23.5799 25.5497 22.957 24.9236 22.3582L23.7431 21.1128C23.5637 20.8854 23.369 20.6833 23.1878 20.4556L20.9627 17.7865C20.5887 17.3531 20.2237 16.8979 19.8428 16.4376C19.5379 16.0691 19.0737 15.4015 18.6569 15.1978C17.8637 14.8108 17.3064 15.2606 16.8921 15.6207C16.4659 15.9915 16.027 16.3354 15.568 16.7218C15.3396 16.9145 15.1063 17.0951 14.8786 17.2891C14.647 17.486 14.4491 17.6693 14.2204 17.8425C14.0231 17.9924 13.7208 18.2315 13.5557 18.3911C13.0885 18.844 13.0175 19.5937 13.4204 20.1766C13.7393 20.6382 15.6283 22.8016 16.1911 23.5131L18.3996 26.1553C20.1767 28.3031 22.9062 30.3582 25.8034 30.9642C28.9036 31.6123 31.3836 30.7776 33.6168 29.494C35.3101 28.5208 36.4368 27.5362 37.8655 26.3801C38.3287 26.0051 38.7306 25.6353 39.1799 25.2693L39.841 24.675C40.0334 24.4703 40.2602 24.2952 40.4707 24.0915C41.5794 23.0177 42.9367 21.4246 43.6161 19.9602C44.8037 17.3994 44.9288 14.5639 43.9171 11.8059C42.8212 8.81911 40.9527 6.84644 39.0148 4.49067L36.7871 1.82474C36.4592 1.43907 36.1335 0.843466 35.4279 0.75527C35.0539 0.707851 34.6915 0.829847 34.456 1.00499L31.8073 3.20737C31.0768 3.82855 30.0961 4.34344 30.4 5.4188Z" fill="#FEFEFE"/>
<path fill-rule="evenodd" clip-rule="evenodd" d="M16.0169 0.814676C14.5594 0.936338 13.3179 1.26562 12.1722 1.8437C9.42292 3.23015 7.40383 4.99296 5.11845 6.96074C4.6724 7.34516 3.27651 8.7248 2.97223 9.10141C2.47558 9.71554 2.14859 10.062 1.65939 10.8205C1.00151 11.8413 0.536972 12.904 0.227172 14.2882C-0.681467 18.3462 1.27368 22.283 3.64081 25.1085C4.00219 25.5397 4.37298 25.9727 4.74279 26.4318L8.08248 30.4559C8.47794 30.9224 8.91394 31.3853 9.73169 31.1582C10.1375 31.0457 10.8181 30.4017 11.1578 30.115C11.6016 29.74 12.0333 29.3961 12.4826 29.0143C12.9231 28.6396 13.3728 28.2993 13.8026 27.9088C14.2265 27.5237 14.4484 26.8288 14.0462 26.1797C13.8996 25.9429 13.6764 25.7087 13.5051 25.5069C12.444 24.2593 9.18541 20.3678 8.54214 19.4258C8.1211 18.8097 6.90133 17.0748 7.07554 16.0319C7.3289 14.515 10.4233 12.1031 11.7828 10.9862C12.9075 10.0627 14.6545 8.51328 16.1182 8.00371C16.949 7.71463 17.3457 7.84019 18.0009 8.22976C18.6374 8.60837 19.4672 9.35869 19.9768 9.89201C20.1628 10.0863 20.4128 10.3263 20.5855 10.5392C20.7667 10.7637 20.9585 10.9447 21.1534 11.1835L23.9261 14.5176C24.3062 14.9685 24.6544 15.4029 25.0456 15.8671C25.381 16.2648 25.707 16.8471 26.4402 16.8971C27.1311 16.9444 27.5204 16.5045 28.0365 16.0699C28.565 15.6244 31.0554 13.6995 31.2951 13.2217C31.8086 12.1994 30.946 11.5332 30.3679 10.8026C30.0063 10.3452 29.6199 9.93511 29.2686 9.47611C29.0963 9.25064 28.9076 9.03464 28.7171 8.81598C28.5215 8.59118 28.3395 8.35275 28.1459 8.13019C27.7647 7.69287 27.4192 7.23711 27.0442 6.80635C26.4145 6.08195 25.4627 4.90925 24.7283 4.27246C24.291 3.89294 23.882 3.52471 23.3801 3.15101C21.5943 1.82161 19.0072 0.565207 16.0169 0.814676Z" fill="#FEFEFE"/>
<path fill-rule="evenodd" clip-rule="evenodd" d="M74.5133 6.18171C74.7711 6.18171 74.7857 6.14932 74.7857 5.89819V1.01443C74.7857 0.786966 74.7387 0.745445 74.5133 0.745445L66.7209 0.744864C64.5866 0.74453 62.5303 1.00106 60.6783 1.64799C59.8443 1.93923 58.9798 2.34018 58.3144 2.77492C56.8322 3.74224 55.8351 4.79393 54.9413 6.3449C53.5379 8.7818 53.2944 12.1886 53.2947 15.0385C53.2947 18.444 53.2328 22.8042 54.9728 25.6719C55.9025 27.2037 56.8708 28.2807 58.3682 29.2195C60.798 30.7432 63.8094 31.2178 66.766 31.2178H74.5133C74.7611 31.2178 74.7893 31.1925 74.7893 30.944V26.0602C74.7893 25.8088 74.7666 25.7819 74.5133 25.7819L67.4823 25.7832C64.7995 25.7832 63.036 25.6437 61.5246 24.1797C60.3059 22.9995 60.1317 20.1234 60.1314 17.9953L60.131 14.0974C60.131 8.04277 61.2288 6.17914 67.3927 6.17947L74.5133 6.18171Z" fill="#FEFEFE"/>
<path fill-rule="evenodd" clip-rule="evenodd" d="M82.8883 0.924036L82.8833 31.2179L89.4481 31.2199L89.4489 21.8739C92.2077 22.0424 93.3247 22.4326 96.5111 22.3482C99.9202 22.2577 102.566 21.4081 104.197 18.6394C105.358 16.6693 105.351 14.5795 105.354 12.2137C105.356 10.9745 105.371 9.74833 105.24 8.52822C104.283 -0.382027 97.418 0.669003 90.3284 0.778042C87.8677 0.815662 85.3381 0.82056 82.8883 0.924036ZM89.4481 17.3862C89.7919 17.5027 90.913 17.5724 91.3473 17.6163C92.9709 17.7804 95.6857 18.0331 97.1223 17.5679C98.0948 17.2529 98.8838 16.3374 99.2018 15.446C99.6054 14.3142 99.5049 12.8625 99.5049 11.5818C99.5049 8.71898 99.6827 6.41611 97.1705 5.54961C95.5827 5.00201 93.1237 5.13471 91.3664 5.25505C90.8648 5.28943 89.9023 5.318 89.4481 5.4257V17.3862Z" fill="#FEFEFE"/>
<path fill-rule="evenodd" clip-rule="evenodd" d="M138.277 29.6315C138.407 29.8476 138.445 30.1661 138.524 30.4315C138.613 30.7296 138.717 30.9434 138.827 31.2097L143.603 31.2204L143.605 10.058L137.933 10.0551L137.88 25.6813C137.725 25.7517 137.553 25.8727 137.399 25.9639C135.509 27.0853 132.102 27.6005 130.732 25.6777C130.174 24.8953 130.147 24.1083 130.147 23.0047V13.2974C130.147 12.331 130.225 10.9832 130.137 10.0632L124.436 10.0547C124.385 10.5621 124.424 18.6003 124.424 19.3477C124.424 21.7707 124.237 26.0252 124.957 28.1156C125.309 29.1375 126.17 30.0824 127.064 30.6569C129.094 31.9639 132.655 31.61 134.906 30.9641C135.509 30.7906 136.051 30.5739 136.617 30.3273C137.119 30.1087 137.735 29.7652 138.277 29.6315Z" fill="#FEFEFE"/>
<path fill-rule="evenodd" clip-rule="evenodd" d="M148.17 30.8516C150.178 31.2422 152.645 31.419 154.748 31.4904C158.529 31.6188 163.389 31.165 164.671 27.0607C164.968 26.1076 165.087 24.8837 164.931 23.8281C164.768 22.7274 164.34 22.05 163.78 21.4207C161.691 19.0728 155.023 18.833 153.726 17.1202C153.004 16.1665 153.569 15.179 154.307 14.7508C155.077 14.3038 156.251 14.1756 157.277 14.1503C160.112 14.08 161.378 14.4857 163.885 14.7648C163.843 14.1824 163.503 10.4577 163.369 10.219C162.503 10.0104 161.082 9.91205 160.152 9.84005C157.249 9.61525 153.082 9.63958 150.609 10.871C149.056 11.6447 147.921 12.9059 147.512 14.9925C145.824 23.6114 158.51 21.4837 159.024 24.8243C159.195 25.9364 158.251 26.5391 157.404 26.7902C155.683 27.3008 152.607 26.9825 150.801 26.7318C149.75 26.5858 148.699 26.3445 147.677 26.2248L148.17 30.8516Z" fill="#FEFEFE"/>
<path fill-rule="evenodd" clip-rule="evenodd" d="M110.208 0.715654C110.215 2.33081 110.216 4.34567 110.208 5.98292V21.4697C110.208 23.3573 110.179 24.4243 110.753 26.1173C111.212 27.473 112.021 28.5065 112.82 29.1959C114.823 30.9275 117.588 31.4556 120.95 31.3359L120.938 26.8067C118.506 26.7369 116.251 26.808 115.889 23.8203C115.776 22.8892 115.846 17.2395 115.846 15.8258C115.846 15.2853 115.888 4.05958 115.854 0.715654H110.208Z" fill="#FEFEFE"/>
<path fill-rule="evenodd" clip-rule="evenodd" d="M75.5935 13.3355H79.7923C80.1283 13.3355 80.4028 13.61 80.4028 13.946V18.3141C80.4028 18.6502 80.1283 18.9246 79.7923 18.9246H75.5935C75.2578 18.9246 74.9834 18.6502 74.9834 18.3141V13.946C74.9834 13.61 75.2578 13.3355 75.5935 13.3355Z" fill="#FEFEFE"/>
</svg>
