<svg xmlns="http://www.w3.org/2000/svg" width="44.602" height="30.476" viewBox="0 0 44.602 30.476">
  <g id="logo-c-plus-reduced" transform="translate(-0.513 -0.833)">
    <path id="Caminho_1" data-name="Caminho 1" d="M30.915,5.507a1.91,1.91,0,0,0,.476.76l1.65,1.989c1.311,1.581,4.612,5.169,5,7.215.281,1.5-2.086,3.4-3.028,4.2-.233.2-.453.365-.689.568a28.254,28.254,0,0,1-4.9,3.637,2.134,2.134,0,0,1-1.9.165,7.677,7.677,0,0,1-2.086-1.6L24.258,21.2c-.179-.227-.374-.429-.555-.657l-2.225-2.669c-.374-.434-.739-.889-1.12-1.349a5.065,5.065,0,0,0-1.186-1.24,1.493,1.493,0,0,0-1.765.423c-.426.37-.865.715-1.324,1.1-.228.193-.462.373-.689.567s-.429.38-.658.554c-.2.15-.5.389-.665.549a1.382,1.382,0,0,0-.135,1.786c.319.462,2.208,2.625,2.771,3.337l2.209,2.642a14.009,14.009,0,0,0,7.4,4.81,10.6,10.6,0,0,0,7.814-1.47,30.449,30.449,0,0,0,4.249-3.115c.463-.375.865-.745,1.315-1.111l.661-.595c.192-.2.419-.38.63-.584a15.643,15.643,0,0,0,3.146-4.131,10.479,10.479,0,0,0,.3-8.155c-1.1-2.987-2.965-4.959-4.9-7.315L37.3,1.913c-.328-.386-.654-.982-1.359-1.07a1.386,1.386,0,0,0-.972.25L32.322,3.3C31.592,3.917,30.611,4.432,30.915,5.507Z" fill="#1365fe" fill-rule="evenodd"/>
    <path id="Caminho_2" data-name="Caminho 2" d="M16.531.9a10.212,10.212,0,0,0-3.845,1.029A34.211,34.211,0,0,0,5.632,7.049c-.446.384-1.842,1.764-2.146,2.141a16.648,16.648,0,0,0-1.313,1.719A10.261,10.261,0,0,0,.74,14.377c-.909,4.058,1.047,8,3.414,10.822.361.431.732.864,1.1,1.323L8.6,30.546a1.481,1.481,0,0,0,1.649.7,5.815,5.815,0,0,0,1.426-1.044c.444-.375.876-.719,1.325-1.1s.89-.715,1.32-1.105a1.346,1.346,0,0,0,.244-1.729,6.027,6.027,0,0,0-.541-.673c-1.061-1.248-4.32-5.14-4.963-6.082-.421-.616-1.641-2.351-1.467-3.394.253-1.517,3.348-3.929,4.708-5.046a17.407,17.407,0,0,1,4.336-2.983,1.854,1.854,0,0,1,1.883.226,11.156,11.156,0,0,1,1.976,1.662c.186.195.436.434.609.648s.373.405.568.644l2.773,3.335c.38.451.728.885,1.12,1.349.336.4.662.98,1.395,1.03.691.047,1.08-.392,1.6-.827a29.145,29.145,0,0,0,3.259-2.849c.514-1.022-.349-1.689-.927-2.42-.362-.457-.748-.867-1.1-1.326-.172-.225-.361-.442-.552-.661s-.378-.463-.571-.686c-.381-.437-.727-.893-1.1-1.324A28.971,28.971,0,0,0,25.243,4.36c-.437-.379-.846-.747-1.348-1.121A10.947,10.947,0,0,0,16.531.9Z" fill="#1365fe" fill-rule="evenodd"/>
  </g>
</svg>
