<svg width="48" height="48" viewBox="0 0 48 48" fill="none" xmlns="http://www.w3.org/2000/svg">
<path fill-rule="evenodd" clip-rule="evenodd" d="M21.5529 10.6941C15.0035 10.6941 9.69412 16.0035 9.69412 22.5529C9.69412 29.1023 15.0035 34.4116 21.5529 34.4116C24.7473 34.4116 27.6467 33.1485 29.779 31.0946C29.8238 31.0362 29.8729 30.9801 29.9264 30.9266C29.9798 30.8731 30.036 30.824 30.0944 30.7792C32.1484 28.6469 33.4116 25.7474 33.4116 22.5529C33.4116 16.0035 28.1023 10.6941 21.5529 10.6941ZM33.4655 32.0699C35.5521 29.4616 36.7998 26.1529 36.7998 22.5529C36.7998 14.1322 29.9735 7.30591 21.5529 7.30591C13.1322 7.30591 6.30591 14.1322 6.30591 22.5529C6.30591 30.9735 13.1322 37.7998 21.5529 37.7998C25.1528 37.7998 28.4613 36.5522 31.0697 34.4657L37.2957 40.6918C37.9573 41.3534 39.03 41.3534 39.6916 40.6918C40.3531 40.0302 40.3531 38.9576 39.6916 38.296L33.4655 32.0699Z" fill="#1365FE"/>
</svg>
