<svg width="173" height="148" viewBox="0 0 173 148" fill="none" xmlns="http://www.w3.org/2000/svg">
<rect x="2" y="2" width="169" height="144" rx="6" fill="#FCFCFD" stroke="#1452C7" stroke-width="4"/>
<path d="M66.008 78.728L59.42 104H51.968L47.936 87.368L43.76 104H36.308L29.9 78.728H36.488L40.124 97.124L44.624 78.728H51.392L55.712 97.124L59.384 78.728H66.008ZM103.871 78.728L97.2833 104H89.8313L85.7993 87.368L81.6233 104H74.1713L67.7633 78.728H74.3513L77.9873 97.124L82.4873 78.728H89.2553L93.5753 97.124L97.2473 78.728H103.871ZM141.735 78.728L135.147 104H127.695L123.663 87.368L119.487 104H112.035L105.627 78.728H112.215L115.851 97.124L120.351 78.728H127.119L131.439 97.124L135.111 78.728H141.735Z" fill="#1452C7"/>
<path d="M8 2H165C168.314 2 171 4.68629 171 8V35H2V8C2 4.68629 4.68629 2 8 2Z" fill="#1452C7" stroke="#1452C7" stroke-width="4"/>
<circle cx="133.5" cy="18.5" r="4.5" fill="#D9D9D9"/>
<circle cx="145.5" cy="18.5" r="4.5" fill="#D9D9D9"/>
<circle cx="157.5" cy="18.5" r="4.5" fill="#D9D9D9"/>
</svg>
