<svg width="16" height="16" viewBox="0 0 16 16" fill="#52575B" xmlns="http://www.w3.org/2000/svg">
<path fill-rule="evenodd" clip-rule="evenodd" d="M6.20558 5.02913C5.91742 5.08682 5.65022 5.22842 5.43935 5.4393C5.15805 5.7206 5.00001 6.10213 5.00001 6.49996C5.00001 7.69343 5.47412 8.83803 6.31803 9.68194C7.16194 10.5259 8.30654 11 9.50001 11C9.89783 11 10.2794 10.8419 10.5607 10.5606C10.7715 10.3497 10.9131 10.0825 10.9708 9.79439L9.53601 9.07697L8.62309 9.68591C8.48375 9.77886 8.30712 9.79586 8.15261 9.7312C7.30161 9.37505 6.62492 8.69836 6.26877 7.84736C6.20411 7.69285 6.22111 7.51622 6.31405 7.37688L6.923 6.46396L6.20558 5.02913ZM4.73224 4.73219C5.20108 4.26335 5.83697 3.99996 6.50001 3.99996C6.6894 3.99996 6.86253 4.10696 6.94722 4.27635L7.94722 6.27635C8.02749 6.43688 8.01556 6.62811 7.91597 6.77741L7.30371 7.6953C7.53445 8.11794 7.88202 8.46552 8.30467 8.69626L9.22256 8.084C9.37186 7.98441 9.56309 7.97248 9.72362 8.05274L11.7236 9.05274C11.893 9.13744 12 9.31057 12 9.49996C12 10.163 11.7366 10.7989 11.2678 11.2677C10.7989 11.7366 10.1631 12 9.50001 12C8.04132 12 6.64237 11.4205 5.61092 10.389C4.57947 9.3576 4.00001 7.95865 4.00001 6.49996C4.00001 5.83692 4.2634 5.20103 4.73224 4.73219Z" fill="#52575B"/>
<path fill-rule="evenodd" clip-rule="evenodd" d="M4.04145 2.84664C5.29249 1.88563 6.85033 1.41239 8.42453 1.51516C9.99872 1.61792 11.4818 2.28966 12.5973 3.40516C13.7128 4.52065 14.3846 6.00375 14.4873 7.57794C14.5901 9.15214 14.1168 10.71 13.1558 11.961C12.1948 13.2121 10.8116 14.0709 9.26416 14.3775C7.79164 14.6691 6.26599 14.4418 4.94524 13.7382L2.81695 14.448C2.64075 14.5068 2.45166 14.5153 2.2709 14.4727C2.09013 14.43 1.92481 14.3378 1.79347 14.2065C1.66214 14.0752 1.56998 13.9098 1.52731 13.7291C1.48465 13.5483 1.49318 13.3592 1.55194 13.183L2.26407 11.0569C1.56064 9.73621 1.33335 8.2107 1.62501 6.73831C1.93155 5.19083 2.79041 3.80765 4.04145 2.84664ZM8.35939 2.51303C7.02738 2.42608 5.7092 2.82651 4.65063 3.63968C3.59205 4.45284 2.86533 5.62322 2.60595 6.93262C2.34657 8.24203 2.57224 9.60107 3.24088 10.7564C3.31275 10.8805 3.32781 11.0296 3.28225 11.1656L2.50058 13.4994L4.83745 12.72C4.97333 12.6747 5.12212 12.6898 5.24609 12.7616C6.4014 13.4302 7.76044 13.6559 9.06984 13.3965C10.3792 13.1371 11.5496 12.4104 12.3628 11.3518C13.176 10.2933 13.5764 8.97509 13.4894 7.64308C13.4025 6.31107 12.8341 5.05614 11.8902 4.11226C10.9463 3.16839 9.6914 2.59998 8.35939 2.51303Z" fill="#52575B"/>
</svg>
